<svg id="Layer_1" data-name="Layer 1" xmlns="http://www.w3.org/2000/svg" viewBox="0 0 904.90855 356.04004"><defs><style>.cls-1{font-size:80px;fill:#ff85cd;font-family:HighTowerText-Reg, High Tower Text;}.cls-2{fill:#b4ffc1;}</style></defs><title>tpq</title><text class="cls-1" transform="translate(0.92613 65.79932) scale(1.01915 1)">TPQ AL MADINAH</text><path class="cls-2" d="M152.92476,245.482c32.42193,11.39093,64.68268,23.17572,96.95677,34.92786l48.33255,17.82025,48.20755,18.12564c16.05945,6.06568,32.27292,11.75507,48.43671,17.56574q24.2254,8.76576,47.68673,19.39819,23.45668,10.644,46.4231,22.48569c15.28027,7.96948,30.43857,16.23694,45.1171,25.67663L533.252,403.518c-17.08484-3.56031-33.68988-8.29285-50.173-13.32337q-24.6915-7.62679-48.867-16.51431-24.19582-8.838-47.60339-19.60181c-15.59958-7.18933-31.14947-14.49994-46.85342-21.43426l-47.08258-20.87436L245.715,290.59018c-31.25265-14.24786-62.51868-28.46307-93.6235-43.07214Z" transform="translate(-152.09145 -177.95996)"/><path class="cls-2" d="M533.4588,401.2355c31.27265-14.34469,62.703-28.29406,94.12024-42.27624l47.20276-20.78052,47.325-20.474c15.78455-6.80078,31.4184-13.97925,47.10089-21.036q23.54352-10.53514,47.83435-19.19684,24.29544-8.65008,49.07032-16.09811c16.54657-4.89007,33.21246-9.48108,50.34759-12.8956l.815,2.04346c-14.78167,9.31525-30.03253,17.454-45.40271,25.2937q-23.08767,11.67823-46.68,22.09119-23.57245,10.46273-47.91589,18.99249c-16.23432,5.67306-32.51715,11.22436-48.64942,17.15335l-48.42529,17.71533-48.54749,17.40878C599.23785,380.654,566.83466,392.16409,534.2738,403.279Z" transform="translate(-152.09145 -177.95996)"/></svg>